<?xml version="1.0" encoding="UTF-8" standalone="no"?>
<!DOCTYPE svg PUBLIC "-//W3C//DTD SVG 1.1//EN"
 "http://www.w3.org/Graphics/SVG/1.1/DTD/svg11.dtd">
<!-- Generated by graphviz version 2.38.0 (20140413.2041)
 -->
<!-- Title: controllers_diagram Pages: 1 -->
<svg width="392pt" height="240pt"
 viewBox="0.00 0.00 391.50 239.50" xmlns="http://www.w3.org/2000/svg" xmlns:xlink="http://www.w3.org/1999/xlink">
<g id="graph0" class="graph" transform="scale(1 1) rotate(0) translate(71.5 116.5)">
<title>controllers_diagram</title>
<polygon fill="none" stroke="none" points="-71.5,123 -71.5,-116.5 320,-116.5 320,123 -71.5,123"/>
<!-- _diagram_info -->
<g id="node1" class="node"><title>_diagram_info</title>
<text text-anchor="start" x="110" y="38.4" font-family="Times,serif" font-size="13.00">Controllers diagram</text>
<text text-anchor="start" x="110" y="52.4" font-family="Times,serif" font-size="13.00">Date: Sep 10 2017 &#45; 22:45</text>
<text text-anchor="start" x="110" y="66.4" font-family="Times,serif" font-size="13.00">Migration version: 20170911014147</text>
<text text-anchor="start" x="110" y="80.4" font-family="Times,serif" font-size="13.00">Generated by RailRoady 1.5.1</text>
<text text-anchor="start" x="110" y="94.4" font-family="Times,serif" font-size="13.00">http://railroady.prestonlee.com</text>
</g>
<!-- PokemonsController -->
<g id="node2" class="node"><title>PokemonsController</title>
<path fill="none" stroke="black" d="M-55.5,118.5C-55.5,118.5 49.5,118.5 49.5,118.5 55.5,118.5 61.5,112.5 61.5,106.5 61.5,106.5 61.5,-82.5 61.5,-82.5 61.5,-88.5 55.5,-94.5 49.5,-94.5 49.5,-94.5 -55.5,-94.5 -55.5,-94.5 -61.5,-94.5 -67.5,-88.5 -67.5,-82.5 -67.5,-82.5 -67.5,106.5 -67.5,106.5 -67.5,112.5 -61.5,118.5 -55.5,118.5"/>
<text text-anchor="middle" x="-3" y="-79.3" font-family="Times,serif" font-size="14.00">PokemonsController</text>
<polyline fill="none" stroke="black" points="-67.5,-71.5 61.5,-71.5 "/>
<text text-anchor="start" x="-59.5" y="-56.3" font-family="Times,serif" font-size="14.00">create</text>
<text text-anchor="start" x="-59.5" y="-41.3" font-family="Times,serif" font-size="14.00">destroy</text>
<text text-anchor="start" x="-59.5" y="-26.3" font-family="Times,serif" font-size="14.00">edit</text>
<text text-anchor="start" x="-59.5" y="-11.3" font-family="Times,serif" font-size="14.00">index</text>
<text text-anchor="start" x="-59.5" y="3.7" font-family="Times,serif" font-size="14.00">new</text>
<text text-anchor="start" x="-59.5" y="18.7" font-family="Times,serif" font-size="14.00">show</text>
<text text-anchor="start" x="-59.5" y="33.7" font-family="Times,serif" font-size="14.00">update</text>
<polyline fill="none" stroke="black" points="-67.5,41.5 61.5,41.5 "/>
<polyline fill="none" stroke="black" points="-67.5,65.5 61.5,65.5 "/>
<text text-anchor="start" x="-59.5" y="80.7" font-family="Times,serif" font-size="14.00">_layout</text>
<text text-anchor="start" x="-59.5" y="95.7" font-family="Times,serif" font-size="14.00">pokemon_params</text>
<text text-anchor="start" x="-59.5" y="110.7" font-family="Times,serif" font-size="14.00">set_pokemon</text>
</g>
<!-- ApplicationController -->
<g id="node3" class="node"><title>ApplicationController</title>
<path fill="none" stroke="black" d="M114,-18C114,-18 226,-18 226,-18 232,-18 238,-24 238,-30 238,-30 238,-100 238,-100 238,-106 232,-112 226,-112 226,-112 114,-112 114,-112 108,-112 102,-106 102,-100 102,-100 102,-30 102,-30 102,-24 108,-18 114,-18"/>
<text text-anchor="middle" x="170" y="-96.8" font-family="Times,serif" font-size="14.00">ApplicationController</text>
<polyline fill="none" stroke="black" points="102,-89 238,-89 "/>
<polyline fill="none" stroke="black" points="102,-65 238,-65 "/>
<polyline fill="none" stroke="black" points="102,-41 238,-41 "/>
<text text-anchor="start" x="110" y="-25.8" font-family="Times,serif" font-size="14.00">_layout</text>
</g>
</g>
</svg>
