<?xml version="1.0" encoding="UTF-8" standalone="no"?>
<!DOCTYPE svg PUBLIC "-//W3C//DTD SVG 1.1//EN"
 "http://www.w3.org/Graphics/SVG/1.1/DTD/svg11.dtd">
<!-- Generated by graphviz version 2.38.0 (20140413.2041)
 -->
<!-- Title: models_diagram Pages: 1 -->
<svg width="612pt" height="536pt"
 viewBox="0.00 0.00 612.34 536.00" xmlns="http://www.w3.org/2000/svg" xmlns:xlink="http://www.w3.org/1999/xlink">
<g id="graph0" class="graph" transform="scale(1 1) rotate(0) translate(4 532)">
<title>models_diagram</title>
<polygon fill="none" stroke="none" points="-4,4 -4,-532 608.343,-532 608.343,4 -4,4"/>
<!-- _diagram_info -->
<g id="node1" class="node"><title>_diagram_info</title>
<text text-anchor="start" x="8" y="-439.1" font-family="Times,serif" font-size="13.00">Models diagram</text>
<text text-anchor="start" x="8" y="-425.1" font-family="Times,serif" font-size="13.00">Date: Sep 10 2017 &#45; 22:45</text>
<text text-anchor="start" x="8" y="-411.1" font-family="Times,serif" font-size="13.00">Migration version: 20170911014147</text>
<text text-anchor="start" x="8" y="-397.1" font-family="Times,serif" font-size="13.00">Generated by RailRoady 1.5.1</text>
<text text-anchor="start" x="8" y="-383.1" font-family="Times,serif" font-size="13.00">http://railroady.prestonlee.com</text>
</g>
<!-- User -->
<g id="node2" class="node"><title>User</title>
<path fill="none" stroke="black" d="M244,-301.5C244,-301.5 420,-301.5 420,-301.5 426,-301.5 432,-307.5 432,-313.5 432,-313.5 432,-515.5 432,-515.5 432,-521.5 426,-527.5 420,-527.5 420,-527.5 244,-527.5 244,-527.5 238,-527.5 232,-521.5 232,-515.5 232,-515.5 232,-313.5 232,-313.5 232,-307.5 238,-301.5 244,-301.5"/>
<text text-anchor="middle" x="332" y="-512.3" font-family="Times,serif" font-size="14.00">User</text>
<polyline fill="none" stroke="black" points="232,-504.5 432,-504.5 "/>
<text text-anchor="start" x="240" y="-489.3" font-family="Times,serif" font-size="14.00">id :INTEGER</text>
<text text-anchor="start" x="240" y="-474.3" font-family="Times,serif" font-size="14.00">email :varchar</text>
<text text-anchor="start" x="240" y="-459.3" font-family="Times,serif" font-size="14.00">encrypted_password :varchar</text>
<text text-anchor="start" x="240" y="-444.3" font-family="Times,serif" font-size="14.00">reset_password_token :varchar</text>
<text text-anchor="start" x="240" y="-429.3" font-family="Times,serif" font-size="14.00">reset_password_sent_at :datetime</text>
<text text-anchor="start" x="240" y="-414.3" font-family="Times,serif" font-size="14.00">remember_created_at :datetime</text>
<text text-anchor="start" x="240" y="-399.3" font-family="Times,serif" font-size="14.00">sign_in_count :integer</text>
<text text-anchor="start" x="240" y="-384.3" font-family="Times,serif" font-size="14.00">current_sign_in_at :datetime</text>
<text text-anchor="start" x="240" y="-369.3" font-family="Times,serif" font-size="14.00">last_sign_in_at :datetime</text>
<text text-anchor="start" x="240" y="-354.3" font-family="Times,serif" font-size="14.00">current_sign_in_ip :varchar</text>
<text text-anchor="start" x="240" y="-339.3" font-family="Times,serif" font-size="14.00">last_sign_in_ip :varchar</text>
<text text-anchor="start" x="240" y="-324.3" font-family="Times,serif" font-size="14.00">created_at :datetime</text>
<text text-anchor="start" x="240" y="-309.3" font-family="Times,serif" font-size="14.00">updated_at :datetime</text>
</g>
<!-- Catch -->
<g id="node3" class="node"><title>Catch</title>
<path fill="none" stroke="black" d="M278.5,-0.5C278.5,-0.5 385.5,-0.5 385.5,-0.5 391.5,-0.5 397.5,-6.5 397.5,-12.5 397.5,-12.5 397.5,-109.5 397.5,-109.5 397.5,-115.5 391.5,-121.5 385.5,-121.5 385.5,-121.5 278.5,-121.5 278.5,-121.5 272.5,-121.5 266.5,-115.5 266.5,-109.5 266.5,-109.5 266.5,-12.5 266.5,-12.5 266.5,-6.5 272.5,-0.5 278.5,-0.5"/>
<text text-anchor="middle" x="332" y="-106.3" font-family="Times,serif" font-size="14.00">Catch</text>
<polyline fill="none" stroke="black" points="266.5,-98.5 397.5,-98.5 "/>
<text text-anchor="start" x="274.5" y="-83.3" font-family="Times,serif" font-size="14.00">id :INTEGER</text>
<text text-anchor="start" x="274.5" y="-68.3" font-family="Times,serif" font-size="14.00">user_id :integer</text>
<text text-anchor="start" x="274.5" y="-53.3" font-family="Times,serif" font-size="14.00">pokemon_id :integer</text>
<text text-anchor="start" x="274.5" y="-38.3" font-family="Times,serif" font-size="14.00">level :integer</text>
<text text-anchor="start" x="274.5" y="-23.3" font-family="Times,serif" font-size="14.00">created_at :datetime</text>
<text text-anchor="start" x="274.5" y="-8.3" font-family="Times,serif" font-size="14.00">updated_at :datetime</text>
</g>
<!-- User&#45;&gt;Catch -->
<g id="edge2" class="edge"><title>User&#45;&gt;Catch</title>
<path fill="none" stroke="#8d3cd4" d="M307.315,-293.453C301.679,-250.633 298.917,-202.093 305,-158 306.195,-149.339 307.969,-140.36 310.047,-131.525"/>
<ellipse fill="none" stroke="#8d3cd4" cx="307.857" cy="-297.417" rx="4.00001" ry="4.00001"/>
<polygon fill="#8d3cd4" stroke="#8d3cd4" points="310.093,-131.34 316.874,-122.723 311.3,-126.488 312.508,-121.636 312.508,-121.636 312.508,-121.636 311.3,-126.488 308.141,-120.55 310.093,-131.34 310.093,-131.34"/>
</g>
<!-- Pokemon -->
<g id="node4" class="node"><title>Pokemon</title>
<path fill="none" stroke="black" d="M325.5,-158.5C325.5,-158.5 432.5,-158.5 432.5,-158.5 438.5,-158.5 444.5,-164.5 444.5,-170.5 444.5,-170.5 444.5,-252.5 444.5,-252.5 444.5,-258.5 438.5,-264.5 432.5,-264.5 432.5,-264.5 325.5,-264.5 325.5,-264.5 319.5,-264.5 313.5,-258.5 313.5,-252.5 313.5,-252.5 313.5,-170.5 313.5,-170.5 313.5,-164.5 319.5,-158.5 325.5,-158.5"/>
<text text-anchor="middle" x="379" y="-249.3" font-family="Times,serif" font-size="14.00">Pokemon</text>
<polyline fill="none" stroke="black" points="313.5,-241.5 444.5,-241.5 "/>
<text text-anchor="start" x="321.5" y="-226.3" font-family="Times,serif" font-size="14.00">id :INTEGER</text>
<text text-anchor="start" x="321.5" y="-211.3" font-family="Times,serif" font-size="14.00">name :varchar</text>
<text text-anchor="start" x="321.5" y="-196.3" font-family="Times,serif" font-size="14.00">description :text</text>
<text text-anchor="start" x="321.5" y="-181.3" font-family="Times,serif" font-size="14.00">created_at :datetime</text>
<text text-anchor="start" x="321.5" y="-166.3" font-family="Times,serif" font-size="14.00">updated_at :datetime</text>
</g>
<!-- User&#45;&gt;Pokemon -->
<g id="edge1" class="edge"><title>User&#45;&gt;Pokemon</title>
<path fill="none" stroke="#a0bb00" d="M360.542,-291.436C361.907,-285.6 363.248,-279.866 364.545,-274.317"/>
<polygon fill="#a0bb00" stroke="#a0bb00" points="360.525,-291.509 353.866,-300.222 359.387,-296.378 358.248,-301.247 358.248,-301.247 358.248,-301.247 359.387,-296.378 362.63,-302.271 360.525,-291.509 360.525,-291.509"/>
<polygon fill="#a0bb00" stroke="#a0bb00" points="364.553,-274.286 371.211,-265.573 365.691,-269.417 366.829,-264.548 366.829,-264.548 366.829,-264.548 365.691,-269.417 362.448,-263.524 364.553,-274.286 364.553,-274.286"/>
</g>
<!-- Pokemon&#45;&gt;Catch -->
<g id="edge3" class="edge"><title>Pokemon&#45;&gt;Catch</title>
<path fill="none" stroke="#a36f57" d="M359.952,-150.316C357.994,-144.131 355.994,-137.812 354.008,-131.537"/>
<ellipse fill="none" stroke="#a36f57" cx="361.223" cy="-154.331" rx="4.00001" ry="4.00001"/>
<polygon fill="#a36f57" stroke="#a36f57" points="353.925,-131.273 355.198,-120.382 352.416,-126.506 350.907,-121.74 350.907,-121.74 350.907,-121.74 352.416,-126.506 346.617,-123.097 353.925,-131.273 353.925,-131.273"/>
</g>
<!-- ApplicationRecord -->
<g id="node5" class="node"><title>ApplicationRecord</title>
<ellipse fill="none" stroke="black" cx="527" cy="-414.5" rx="77.1866" ry="18"/>
<text text-anchor="middle" x="527" y="-410.8" font-family="Times,serif" font-size="14.00">ApplicationRecord</text>
</g>
</g>
</svg>
