<?xml version="1.0" encoding="UTF-8" standalone="no"?>
<!DOCTYPE svg PUBLIC "-//W3C//DTD SVG 1.1//EN"
 "http://www.w3.org/Graphics/SVG/1.1/DTD/svg11.dtd">
<!-- Generated by graphviz version 2.38.0 (20140413.2041)
 -->
<!-- Title: models_diagram Pages: 1 -->
<svg width="467pt" height="230pt"
 viewBox="0.00 0.00 467.34 230.00" xmlns="http://www.w3.org/2000/svg" xmlns:xlink="http://www.w3.org/1999/xlink">
<g id="graph0" class="graph" transform="scale(1 1) rotate(0) translate(4 226)">
<title>models_diagram</title>
<polygon fill="none" stroke="none" points="-4,4 -4,-226 463.343,-226 463.343,4 -4,4"/>
<!-- _diagram_info -->
<g id="node1" class="node"><title>_diagram_info</title>
<text text-anchor="start" x="8" y="-207.6" font-family="Times,serif" font-size="13.00">Models diagram</text>
<text text-anchor="start" x="8" y="-193.6" font-family="Times,serif" font-size="13.00">Date: Sep 10 2017 &#45; 22:45</text>
<text text-anchor="start" x="8" y="-179.6" font-family="Times,serif" font-size="13.00">Migration version: 20170911014147</text>
<text text-anchor="start" x="8" y="-165.6" font-family="Times,serif" font-size="13.00">Generated by RailRoady 1.5.1</text>
<text text-anchor="start" x="8" y="-151.6" font-family="Times,serif" font-size="13.00">http://railroady.prestonlee.com</text>
</g>
<!-- User -->
<g id="node2" class="node"><title>User</title>
<ellipse fill="none" stroke="black" cx="259" cy="-183" rx="27.0966" ry="18"/>
<text text-anchor="middle" x="259" y="-179.3" font-family="Times,serif" font-size="14.00">User</text>
</g>
<!-- Catch -->
<g id="node3" class="node"><title>Catch</title>
<ellipse fill="none" stroke="black" cx="259" cy="-18" rx="31.3957" ry="18"/>
<text text-anchor="middle" x="259" y="-14.3" font-family="Times,serif" font-size="14.00">Catch</text>
</g>
<!-- User&#45;&gt;Catch -->
<g id="edge2" class="edge"><title>User&#45;&gt;Catch</title>
<path fill="none" stroke="#d4e381" d="M250.789,-157.27C244.432,-134.973 237.418,-101.287 242,-72 243.38,-63.1765 245.98,-53.8161 248.738,-45.4564"/>
<ellipse fill="none" stroke="#d4e381" cx="252.022" cy="-161.392" rx="4.00001" ry="4.00001"/>
<polygon fill="#d4e381" stroke="#d4e381" points="248.795,-45.2938 256.356,-37.351 250.453,-40.5765 252.11,-35.8592 252.11,-35.8592 252.11,-35.8592 250.453,-40.5765 247.865,-34.3675 248.795,-45.2938 248.795,-45.2938"/>
</g>
<!-- Pokemon -->
<g id="node4" class="node"><title>Pokemon</title>
<ellipse fill="none" stroke="black" cx="295" cy="-90" rx="44.393" ry="18"/>
<text text-anchor="middle" x="295" y="-86.3" font-family="Times,serif" font-size="14.00">Pokemon</text>
</g>
<!-- User&#45;&gt;Pokemon -->
<g id="edge1" class="edge"><title>User&#45;&gt;Pokemon</title>
<path fill="none" stroke="#8a7742" d="M269.366,-155.797C274.131,-143.752 279.772,-129.493 284.547,-117.422"/>
<polygon fill="#8a7742" stroke="#8a7742" points="269.282,-156.01 261.418,-163.654 267.442,-160.66 265.603,-165.309 265.603,-165.309 265.603,-165.309 267.442,-160.66 269.787,-166.965 269.282,-156.01 269.282,-156.01"/>
<polygon fill="#8a7742" stroke="#8a7742" points="284.638,-117.192 292.501,-109.549 286.478,-112.543 288.317,-107.893 288.317,-107.893 288.317,-107.893 286.478,-112.543 284.133,-106.238 284.638,-117.192 284.638,-117.192"/>
</g>
<!-- Pokemon&#45;&gt;Catch -->
<g id="edge3" class="edge"><title>Pokemon&#45;&gt;Catch</title>
<path fill="none" stroke="#012548" d="M282.51,-64.7144C279.212,-58.3016 275.641,-51.3577 272.302,-44.8648"/>
<ellipse fill="none" stroke="#012548" cx="284.456" cy="-68.4978" rx="4.00002" ry="4.00002"/>
<polygon fill="#012548" stroke="#012548" points="272.208,-44.6819 271.636,-33.7309 269.921,-40.2354 267.634,-35.789 267.634,-35.789 267.634,-35.789 269.921,-40.2354 263.633,-37.8471 272.208,-44.6819 272.208,-44.6819"/>
</g>
<!-- ApplicationRecord -->
<g id="node5" class="node"><title>ApplicationRecord</title>
<ellipse fill="none" stroke="black" cx="382" cy="-183" rx="77.1866" ry="18"/>
<text text-anchor="middle" x="382" y="-179.3" font-family="Times,serif" font-size="14.00">ApplicationRecord</text>
</g>
</g>
</svg>
